<?xml version="1.0" encoding="UTF-8" standalone="no"?>
<svg
   xmlns:dc="http://purl.org/dc/elements/1.1/"
   xmlns:cc="http://creativecommons.org/ns#"
   xmlns:rdf="http://www.w3.org/1999/02/22-rdf-syntax-ns#"
   xmlns:svg="http://www.w3.org/2000/svg"
   xmlns="http://www.w3.org/2000/svg"
   viewBox="0 0 280.14667 378"
   height="378"
   width="280.14667"
   xml:space="preserve"
   id="svg2"
   version="1.1"><metadata
     id="metadata8"><rdf:RDF><cc:Work
         rdf:about=""><dc:format>image/svg+xml</dc:format><dc:type
           rdf:resource="http://purl.org/dc/dcmitype/StillImage" /></cc:Work></rdf:RDF></metadata><defs
     id="defs6" /><g
     transform="matrix(1.3333333,0,0,-1.3333333,0,378)"
     id="g10"><g
       transform="scale(0.1)"
       id="g12"><path
         id="path14"
         style="fill:#231f20;fill-opacity:1;fill-rule:nonzero;stroke:none"
         d="m 1539.16,2376.99 c -1.28,34.64 -2.55,68.46 -3.73,101.29 h 226.64 c 27.22,-29.73 52.03,-63.15 74.31,-100.32 z m 394.8,84.58 c -133.78,234.07 -390.53,351.11 -770.09,351.11 -99.13,0 -188.3,-7.12 -267.53,-21.4 v 43.7 H 851.762 L 25.0273,2456 v -201.61 c 55.7383,0 103.2307,-19.55 142.6057,-58.57 39.324,-39 59.004,-86.33 59.004,-142.07 V 407.754 l 0.914,18.59 c 0,-55.746 -19.692,-103.457 -59.02,-143.063 C 129.227,243.594 81.3672,223.832 25.0273,223.832 H 0 V 0 h 1163.87 c 379.56,0 636.31,117.348 770.09,352.012 111.44,195.066 167.18,546.488 167.18,1054.338 0,507.77 -55.74,859.47 -167.18,1055.22 z M 1543.8,2142.91 c 0,45.2 0,78.64 0,100.34 h 354.86 c 12.91,-43.99 22.21,-77.45 27.84,-100.34 z m 0,-234.06 v 100.31 l 417.05,0.97 c 3.72,-26.02 7.74,-59.83 12.1,-101.28 z m 0,-234.97 v 101.2 h 440.3 c 1.2,-26.6 2.44,-60.33 3.72,-101.2 z m 1.88,-234.1 -1.88,100.32 h 445.88 v -100.32 z m 444,-234.08 h -443.11 v 100.32 h 443.11 c 0,-65.08 0,-98.53 0,-100.32 z M 403.141,2455.04 290.715,2456 460.73,2534.91 c -19.25,-22.28 -38.425,-48.97 -57.589,-79.87 z M 1980.4,970.652 h -436.6 v 101.288 h 442.18 c -1.96,-45.25 -3.78,-78.991 -5.58,-101.288 z M 1397.49,149.52 c -26.96,-27.274 -59.29,-40.879 -97.05,-40.879 h -94.73 v 118.004 h -108.72 c -55.74,0 -103.146,19.64 -142.154,58.941 -39.027,39.301 -58.496,86.871 -58.496,142.594 0,1.871 0,3.437 0,4.675 V 2589.76 c 14.859,74.29 58.777,111.47 131.89,111.47 h 272.21 c 37.15,0 69.2,-13.23 96.08,-39.53 26.92,-26.31 40.41,-57.75 40.41,-94.24 V 251.699 247.09 c 0.6,-37.828 -12.53,-70.371 -39.44,-97.57 z M 309.281,2234.92 c -21.105,32.18 -49.554,60.94 -85.449,86.35 h 118.004 c -17.402,-42.73 -28.246,-71.48 -32.555,-86.35 z M 1947.86,736.57 H 1543.8 c 0,44.582 0,78.028 0,100.328 h 426.34 c -8.67,-44.578 -16.13,-78.035 -22.28,-100.328 z M 1889.39,502.512 H 1543.8 c 0,43.968 0,77.426 0,100.304 h 381.74 c -10.53,-34.703 -22.57,-68.136 -36.15,-100.304 z M 1722.16,268.414 H 1527.1 c 2.46,26.609 4.89,60.047 7.43,100.324 h 279.57 c -31.58,-42.133 -62.2,-75.574 -91.94,-100.324 z M 342.719,323.258 c 12.34,29.73 20.429,60.336 24.156,91.922 22.875,-50.153 38.414,-81.442 46.457,-93.778 z M 128.18,111.469 l 1.863,15.761 c 29.719,9.282 63.758,28.161 102.184,56.696 H 524.785 C 558.238,154.801 591,130.645 623.246,111.469 H 128.18" /></g></g></svg>